<svg width="858" height="695" viewBox="0 0 858 695" fill="none" xmlns="http://www.w3.org/2000/svg">
<path d="M843 1H400.5C389.642 3.1272 372.5 8 360.713 31.4408L345 58C342.833 62.5 340.1 74.3 346.5 85.5C352.9 96.7 466.167 300.167 522 400.5C524.667 407.667 528.4 424.2 522 433C515.6 441.8 433.333 596 393 672C391.333 678 391.3 690.6 404.5 693C417.7 695.4 459 694 478 693C484.333 692.167 498.3 687.6 503.5 676C508.7 664.4 740.333 239.5 855.5 28.5C858.333 21.5 859.8 6.2 843 1Z" fill="#D9D9D9" stroke="white"/>
<path d="M285.5 156L1.5 670C-0.166667 677.167 0 691.7 14 692.5C28 693.3 129.5 692.833 178.5 692.5C183.5 691.833 195.3 687.8 202.5 677C209.7 666.2 252.5 586.167 273 547.5C274.667 544.333 279.7 538 286.5 538C293.3 538 339.333 537.333 361.5 537C367.333 535.5 381 529.4 389 517C397 504.6 420.667 460.833 431.5 440.5C434.5 435.333 439.6 420.2 436 401C432.4 381.8 346.5 229.667 304 156C301 151.833 293.5 146 285.5 156Z" fill="#D9D9D9" stroke="white"/>
</svg>
