<svg width="36" height="39" viewBox="0 0 36 39" fill="none" xmlns="http://www.w3.org/2000/svg">
<path d="M17.2921 0.504883C17.7588 0.40889 18.2404 0.408943 18.7071 0.504883C19.2468 0.615875 19.7299 0.886777 20.1134 1.10156L20.2179 1.16016L33.214 8.37988C33.2493 8.39954 33.286 8.41987 33.3233 8.44043L33.3253 8.44141C33.7312 8.66498 34.242 8.94581 34.6339 9.37109C34.9727 9.73874 35.229 10.1747 35.3858 10.6494C35.5673 11.1986 35.5653 11.7817 35.5636 12.2451C35.5634 12.2884 35.5626 12.331 35.5626 12.3721V26.6279C35.5626 26.669 35.5634 26.7116 35.5636 26.7549C35.5653 27.2183 35.5673 27.8014 35.3858 28.3506C35.2289 28.8253 34.9727 29.2613 34.6339 29.6289C34.242 30.0542 33.7312 30.335 33.3253 30.5586C33.3043 30.5702 33.2832 30.5815 33.2628 30.5928C33.2465 30.6018 33.2298 30.6113 33.214 30.6201L20.2179 37.8398L20.1134 37.8984C19.7299 38.1132 19.2468 38.3831 18.7071 38.4941C18.2403 38.5901 17.7589 38.5901 17.2921 38.4941C16.7525 38.3831 16.2702 38.1132 15.8868 37.8984L15.7823 37.8398L2.78525 30.6201C2.74941 30.6002 2.71273 30.5794 2.6749 30.5586C2.26904 30.3351 1.75824 30.0541 1.3663 29.6289C1.02754 29.2613 0.771248 28.8252 0.614349 28.3506C0.432905 27.8014 0.434927 27.2183 0.436615 26.7549V12.2451C0.434927 11.7817 0.432901 11.1986 0.614349 10.6494C0.771247 10.1748 1.02754 9.7387 1.3663 9.37109C1.75824 8.94589 2.26903 8.66496 2.6749 8.44141C2.71273 8.42057 2.74941 8.39979 2.78525 8.37988L15.7823 1.16016L15.8868 1.10156C16.2703 0.886775 16.7524 0.615876 17.2921 0.504883ZM3.94931 26.6279C3.94931 26.9493 3.94995 27.1143 3.95712 27.2334L3.9581 27.2432L3.96591 27.249C4.06652 27.3131 4.21049 27.3928 4.4913 27.5488L16.2433 34.0781V20.5332L3.94931 13.7031V26.6279ZM17.9913 3.95898C17.89 4.00786 17.7543 4.08274 17.4884 4.23047L5.80966 10.7188L18.0001 17.4912L30.1905 10.7188L18.5118 4.23047C18.2457 4.0826 18.1093 4.00787 18.0079 3.95898L18.0001 3.95508L17.9913 3.95898Z" fill="#2B6BA9"/>
</svg>
